<svg width="46" height="36" viewBox="0 0 46 36" fill="none" xmlns="http://www.w3.org/2000/svg">
<path d="M15.9182 13.1233L8.23521 20.8575L5.35355 17.9588L8.23521 15.0579L11.1169 17.9588M17.8379 15.0579L8.23521 24.7245L1.51416 17.9588L8.23521 11.1909L13.0366 16.0242M14.9584 17.9118L22.6647 25.6673M17.8612 20.834L25.5209 13.1233M22.6414 6.35759L17.8379 1.52429L11.1169 8.29005L20.7196 17.9588M22.6414 10.2246L30.3223 17.9588M27.3114 24.8568L17.8379 34.3911L11.0808 27.5891L15.8843 22.7558M20.7196 27.6254L13.0366 19.8912M19.6714 22.6476L27.3205 14.9497M20.7196 8.29005L17.8379 5.39135L14.9584 8.29005L22.6414 16.0242M24.5611 8.29005L32.2441 16.0242M27.4427 11.1909L30.3223 8.29005L27.4427 5.39135L19.7703 13.1127M29.3624 13.1233L34.1638 8.29005L27.4427 1.52429L17.8379 11.1909M25.4722 22.8411L17.8379 30.5262L14.9584 27.6254L17.8379 24.7245M24.5611 27.6254L27.4427 30.5262L30.3223 27.6254L22.6414 19.8912M22.6414 29.5578L27.4427 34.3911L34.1532 27.636L24.5611 17.9801M34.1638 17.9588L37.0454 20.8575L39.9271 17.9588L37.0454 15.0579L29.3985 22.7558M32.2441 19.8912L37.0454 24.7245L43.7686 17.9588L37.0454 11.1909L27.4427 20.8575" stroke="#353030" stroke-width="2.14856" stroke-miterlimit="10"/>
</svg>
