<svg width="16" height="16" viewBox="0 0 16 16" fill="none" xmlns="http://www.w3.org/2000/svg">
<path d="M13.3085 10.9361L14.6817 6.81664C15.8813 3.21793 16.4811 1.41858 15.5312 0.468763C14.5814 -0.481052 12.7821 0.118732 9.18336 1.3183L5.06389 2.69146C2.15939 3.65963 0.707135 4.14371 0.294447 4.85359C-0.0981488 5.5289 -0.0981489 6.36295 0.294446 7.03827C0.707135 7.74814 2.15939 8.23223 5.06389 9.2004C5.42385 9.32038 5.82881 9.23471 6.09835 8.96766L10.5029 4.60396C10.7506 4.35847 11.1505 4.36033 11.396 4.60812C11.6415 4.85591 11.6397 5.2558 11.3919 5.5013L7.05849 9.79453C6.7614 10.0889 6.66736 10.5394 6.79961 10.9361C7.76777 13.8406 8.25186 15.2929 8.96173 15.7056C9.63704 16.0982 10.4711 16.0982 11.1464 15.7056C11.8563 15.2929 12.3404 13.8406 13.3085 10.9361Z" fill="#1EAE6D"/>
</svg>
