<svg width="15" height="18" viewBox="0 0 15 18" fill="none" xmlns="http://www.w3.org/2000/svg">
<path d="M10.314 7.96491C9.40954 6.88277 8.95734 6.3417 8.4375 6.42503C7.91767 6.50837 7.67448 7.16093 7.1881 8.46605L7.06227 8.8037C6.92406 9.17457 6.85495 9.36001 6.72049 9.49661C6.58603 9.63321 6.40143 9.70551 6.03225 9.8501L5.69613 9.98174C4.39695 10.4906 3.74736 10.745 3.67327 11.265C3.59919 11.785 4.14967 12.2263 5.25064 13.1087L5.53548 13.337C5.84834 13.5878 6.00477 13.7132 6.09532 13.8848C6.18587 14.0565 6.20029 14.2549 6.22912 14.6518L6.25537 15.0131C6.35685 16.4097 6.40758 17.108 6.88163 17.3461C7.35567 17.5841 7.93908 17.2043 9.1059 16.4445L9.40777 16.248C9.73934 16.0321 9.90513 15.9242 10.0955 15.8936C10.286 15.8631 10.4795 15.9134 10.8665 16.0141L11.2188 16.1058C12.5807 16.4601 13.2617 16.6373 13.6287 16.2644C13.9958 15.8915 13.8059 15.2155 13.426 13.8635L13.3278 13.5137C13.2198 13.1295 13.1659 12.9374 13.193 12.7469C13.2201 12.5564 13.3253 12.3891 13.5357 12.0545L13.7272 11.7498C14.4674 10.5721 14.8375 9.98333 14.5903 9.51481C14.3431 9.04629 13.6423 9.00837 12.2408 8.93251L11.8782 8.91288C11.4799 8.89133 11.2807 8.88055 11.1071 8.79335C10.9334 8.70614 10.8049 8.55239 10.5479 8.24488L10.314 7.96491Z" fill="#008C4D"/>
<path d="M9.97142 2.90329L10.1392 3.38163C10.3235 3.90702 10.4156 4.16973 10.5949 4.36325C10.7742 4.55676 11.0203 4.65919 11.5125 4.86403L11.9607 5.05053C13.693 5.77138 14.5591 6.13181 14.6579 6.86851C14.699 7.17516 14.5958 7.46248 14.3555 7.78358C14.2742 7.7616 14.196 7.74369 14.1225 7.72874C13.6402 7.63067 13.0268 7.59762 12.4015 7.56393L11.9526 7.53965C11.8663 7.53498 11.7991 7.53132 11.7416 7.5276C11.7035 7.48301 11.6597 7.43054 11.6031 7.36287L11.3138 7.01667C10.9101 6.53344 10.5151 6.06063 10.1478 5.7324C9.75613 5.38236 9.10136 4.92582 8.21996 5.06713C7.32918 5.20993 6.85403 5.85807 6.59768 6.32068C6.36018 6.74929 6.14657 7.32291 5.93031 7.90367L5.77395 8.32329C5.74753 8.39418 5.72634 8.45099 5.70768 8.49984C5.6588 8.51944 5.60194 8.54173 5.53092 8.56955L5.1134 8.73306C4.53509 8.95939 3.96451 9.18269 3.53966 9.42715C3.08249 9.6902 2.43961 10.1761 2.31213 11.0708C2.18587 11.9571 2.65789 12.6041 3.01518 12.9878C3.28148 13.2737 3.63926 13.5754 4.02127 13.8845C2.58341 14.2746 1.81859 14.4201 1.38391 13.9509C0.894498 13.4227 1.14772 12.465 1.65417 10.5497L1.7852 10.0541C1.92912 9.50987 2.00107 9.23773 1.96489 8.96787C1.9287 8.698 1.78847 8.46096 1.50801 7.98687L1.25267 7.55526C0.2657 5.88693 -0.227783 5.05276 0.101801 4.38903C0.431385 3.7253 1.36576 3.67157 3.23452 3.56411L3.71799 3.53631C4.24904 3.50577 4.51456 3.4905 4.74609 3.36696C4.97763 3.24343 5.14897 3.02561 5.49164 2.58996L5.80362 2.19335C7.0095 0.66031 7.61244 -0.10621 8.30555 0.0118537C8.99866 0.129918 9.32291 1.05438 9.97142 2.90329Z" fill="#008C4D"/>
</svg>
