<?xml version="1.0" encoding="UTF-8"?>
<svg id="Layer_3" data-name="Layer 3" xmlns="http://www.w3.org/2000/svg" viewBox="0 0 608.17 901.87">
  <defs>
    <style>
      .cls-1 {
        fill: none;
        stroke: #fff;
        stroke-miterlimit: 10;
        stroke-width: 5px;
      }
    </style>
  </defs>
  <polyline class="cls-1" points="402.76 502.42 503.45 401.73 541.2 439.49 503.45 477.25 465.69 439.49"/>
  <polyline class="cls-1" points="377.59 477.25 503.45 351.39 591.55 439.49 503.45 527.59 440.52 464.66"/>
  <line class="cls-1" x1="415.35" y1="440.1" x2="314.36" y2="339.11"/>
  <line class="cls-1" x1="377.28" y1="402.04" x2="276.9" y2="502.42"/>
  <polyline class="cls-1" points="314.66 590.52 377.59 653.45 465.69 565.35 339.83 439.49"/>
  <line class="cls-1" x1="314.66" y1="540.18" x2="213.97" y2="439.49"/>
  <polyline class="cls-1" points="253.45 349.67 377.59 225.53 466.14 314.09 403.22 377.02"/>
  <line class="cls-1" x1="339.83" y1="313.63" x2="440.52" y2="414.32"/>
  <line class="cls-1" x1="351.96" y1="377.02" x2="251.73" y2="477.25"/>
  <polyline class="cls-1" points="339.83 565.35 377.59 603.1 415.35 565.35 314.66 464.66"/>
  <line class="cls-1" x1="289.49" y1="565.35" x2="188.8" y2="464.66"/>
  <polyline class="cls-1" points="251.73 527.59 213.97 565.35 251.73 603.1 352.26 502.57"/>
  <polyline class="cls-1" points="226.56 502.42 163.63 565.35 251.73 653.45 377.59 527.59"/>
  <polyline class="cls-1" points="277.54 375.93 377.59 275.87 415.35 313.63 377.59 351.39"/>
  <polyline class="cls-1" points="289.49 313.63 251.73 275.87 213.97 313.63 314.66 414.32"/>
  <polyline class="cls-1" points="314.66 288.46 251.73 225.53 163.77 313.49 289.49 439.21"/>
  <polyline class="cls-1" points="163.63 439.49 125.87 401.73 88.12 439.49 125.87 477.25 226.1 377.02"/>
  <polyline class="cls-1" points="188.8 414.32 125.87 351.39 37.77 439.49 125.87 527.59 251.73 401.73"/>
</svg>