<svg width="102" height="80" viewBox="0 0 102 80" fill="none" xmlns="http://www.w3.org/2000/svg">
<g clip-path="url(#clip0_799_207)">
<path d="M35.2652 28.7497L17.3857 46.7481L10.6797 40.0024L17.3857 33.2517L24.0917 40.0024" stroke="#231F20" stroke-width="5" stroke-miterlimit="10"/>
<path d="M39.7338 33.2521L17.3869 55.7476L1.7461 40.0027L17.3869 24.2529L28.5603 35.5006" stroke="#231F20" stroke-width="5" stroke-miterlimit="10"/>
<path d="M33.0313 39.8934L50.9649 57.9414" stroke="#231F20" stroke-width="5" stroke-miterlimit="10"/>
<path d="M39.7871 46.6934L57.6123 28.7496" stroke="#231F20" stroke-width="5" stroke-miterlimit="10"/>
<path d="M50.911 13.0049L39.7326 1.75711L24.0918 17.502L46.4386 40.0024" stroke="#231F20" stroke-width="5" stroke-miterlimit="10"/>
<path d="M50.9121 22.0041L68.7866 40.0024" stroke="#231F20" stroke-width="5" stroke-miterlimit="10"/>
<path d="M61.7785 56.0549L39.7325 78.2427L24.0078 62.4134L35.1862 51.1657" stroke="#231F20" stroke-width="5" stroke-miterlimit="10"/>
<path d="M46.44 62.4981L28.5605 44.4997" stroke="#231F20" stroke-width="5" stroke-miterlimit="10"/>
<path d="M44.2852 51.166L62.0857 33.252" stroke="#231F20" stroke-width="5" stroke-miterlimit="10"/>
<path d="M46.4384 17.5021L39.7323 10.7564L33.0313 17.5021L50.9107 35.5005" stroke="#231F20" stroke-width="5" stroke-miterlimit="10"/>
<path d="M55.3789 17.5021L73.2584 35.5005" stroke="#231F20" stroke-width="5" stroke-miterlimit="10"/>
<path d="M62.0853 24.2528L68.7864 17.5022L62.0853 10.7565L44.2305 28.7251" stroke="#231F20" stroke-width="5" stroke-miterlimit="10"/>
<path d="M66.5516 28.75L77.725 17.5022L62.0842 1.75738L39.7324 24.2529" stroke="#231F20" stroke-width="5" stroke-miterlimit="10"/>
<path d="M57.4984 51.3643L39.7324 69.2485L33.0313 62.4979L39.7324 55.7473" stroke="#231F20" stroke-width="5" stroke-miterlimit="10"/>
<path d="M55.3795 62.4979L62.0855 69.2485L68.7866 62.4979L50.9121 44.4995" stroke="#231F20" stroke-width="5" stroke-miterlimit="10"/>
<path d="M50.9121 66.9949L62.0855 78.2427L77.7017 62.5226L55.3795 40.0519" stroke="#231F20" stroke-width="5" stroke-miterlimit="10"/>
<path d="M77.7263 40.0027L84.4323 46.7483L91.1384 40.0027L84.4323 33.252L66.6367 51.166" stroke="#231F20" stroke-width="5" stroke-miterlimit="10"/>
<path d="M73.2594 44.4998L84.4328 55.7476L100.079 40.0027L84.4328 24.2529L62.0859 46.7484" stroke="#231F20" stroke-width="5" stroke-miterlimit="10"/>
</g>
<defs>
<clipPath id="clip0_799_207">
<rect width="80" height="101.818" fill="white" transform="translate(3.49691e-06 80) rotate(-90)"/>
</clipPath>
</defs>
</svg>
