<svg width="33" height="26" viewBox="0 0 33 26" fill="none" xmlns="http://www.w3.org/2000/svg">
<path d="M26.0002 6.00133L22.5011 9.50006L23.4978 10.4965L26.9969 6.99776L33 13.0009L26.9966 19.0019L23.4978 15.5029L22.4935 16.5072L25.9926 20.0063L19.999 26L16.4992 22.5004L12.9992 26L6.97132 19.9722L10.471 16.4738L9.50039 15.5029L6.00128 19.0019L0 13.0009L6.00128 6.99776L9.50009 10.4965L10.4964 9.50036L6.99792 6.00133L12.9992 0L16.4992 3.49842L19.999 0L26.0002 6.00133ZM9.17868 19.9722L12.9992 23.7927L18.8947 17.8989L18.5986 17.6024L12.9992 23.2021L9.79764 19.9987L11.8958 17.8986L11.5747 17.5775L9.17868 19.9722ZM17.6026 14.3992L23.2005 19.9984L19.999 23.2021L17.8983 21.1017L17.6029 21.397L19.9987 23.7927L23.7852 20.006L17.8907 14.1116L17.6026 14.3992ZM12.0038 19.9984L12.9992 20.9948L13.9955 19.9984L12.9992 19.0019L12.0038 19.9984ZM19.002 19.9981L19.9987 20.9948L20.9938 19.9987L19.998 19.0025L19.002 19.9981ZM10.6038 14.3996L15.0992 18.8947L15.4133 18.5809L10.9172 14.086L10.6038 14.3996ZM15.52 16.4814L16.5167 17.4775L17.4953 16.499L16.4992 15.5026L15.52 16.4814ZM2.20644 13.0003L6.00097 16.7949L11.8958 10.9002L11.5998 10.604L6.00159 16.2025L2.79758 13.0009L6.00128 9.79716L8.10038 11.8963L8.39671 11.5998L6.00128 9.20478L2.20644 13.0003ZM21.0938 15.1074L21.3898 15.4036L26.9969 9.79716L30.2006 13.0009L26.9969 16.2022L24.8969 14.104L24.6011 14.3996L26.9966 16.7949L30.7926 13.0003L26.9969 9.20478L21.0938 15.1074ZM14.12 15.0816L14.4163 15.3781L18.8947 10.9008L18.5977 10.604L14.12 15.0816ZM18.9944 13.0082L19.9901 14.004L20.9938 13.0003L19.998 12.0045L18.9944 13.0082ZM5.00494 13L6.00097 13.9958L6.99701 12.9997L6.00128 12.0039L5.00494 13ZM26.0002 13.0003L26.9966 13.9958L27.9929 13L26.9969 12.0039L26.0002 13.0003ZM12.0206 12.9827L13.0163 13.9785L13.9949 12.9997L12.9995 12.0039L12.0206 12.9827ZM17.6026 7.40149L22.0971 11.8969L22.3941 11.6001L17.8989 7.10499L17.6026 7.40149ZM9.20467 6.00103L15.0986 11.896L15.3956 11.5992L9.79734 6.00133L12.9992 2.79941L15.0992 4.89797L15.3956 4.60178L12.9992 2.20672L9.20467 6.00103ZM15.5032 9.50006L16.4989 10.4959L17.4944 9.50036L16.4989 8.50455L15.5032 9.50006ZM14.1035 8.10051L14.3998 8.3967L19.999 2.79941L23.2005 6.00103L21.1017 8.10081L21.3974 8.3967L23.7932 6.00103L19.9987 2.20672L14.1035 8.10051ZM19.0026 6.00164L19.9984 6.99745L20.9938 6.00133L19.9987 5.00612L19.0026 6.00164ZM12.0044 6.00103L12.9998 6.99685L13.9955 6.00133L12.9995 5.00612L12.0044 6.00103Z" fill="#FFFDF7"/>
</svg>
