<svg width="40" height="40" viewBox="0 0 40 40" fill="none" xmlns="http://www.w3.org/2000/svg">
<circle cx="20.0007" cy="20.0004" r="3.33344" stroke="#F6F6F6" stroke-width="2.50008"/>
<path d="M10.0002 20.001L16.6671 20.001" stroke="#F6F6F6" stroke-width="2.50008" stroke-linecap="round"/>
<path d="M23.334 20.001L30.0009 20.001" stroke="#F6F6F6" stroke-width="2.50008" stroke-linecap="round"/>
<path d="M15.0005 28.6611L18.3339 22.8874" stroke="#F6F6F6" stroke-width="2.50008" stroke-linecap="round"/>
<path d="M21.6672 17.1143L25.0007 11.3406" stroke="#F6F6F6" stroke-width="2.50008" stroke-linecap="round"/>
<path d="M25.0007 28.6611L21.6673 22.8874" stroke="#F6F6F6" stroke-width="2.50008" stroke-linecap="round"/>
<path d="M18.334 17.1143L15.0005 11.3406" stroke="#F6F6F6" stroke-width="2.50008" stroke-linecap="round"/>
<path d="M11.6671 5.56278C14.1186 4.14465 16.9649 3.33301 20.0007 3.33301C29.2057 3.33301 36.6679 10.7952 36.6679 20.0002C36.6679 29.2052 29.2057 36.6674 20.0007 36.6674C10.7956 36.6674 3.3335 29.2052 3.3335 20.0002C3.3335 16.9644 4.14514 14.1181 5.56327 11.6666" stroke="#F6F6F6" stroke-width="2.50008" stroke-linecap="round"/>
<path d="M25.0008 28.6631C23.5299 29.514 21.8222 30.001 20.0007 30.001C14.4776 30.001 10.0004 25.5237 10.0004 20.0007C10.0004 14.4776 14.4776 10.0004 20.0007 10.0004C25.5237 10.0004 30.001 14.4776 30.001 20.0007C30.001 21.8222 29.514 23.5299 28.6631 25.0008" stroke="#F6F6F6" stroke-width="2.50008" stroke-linecap="round"/>
</svg>
