<svg width="40" height="40" viewBox="0 0 40 40" fill="none" xmlns="http://www.w3.org/2000/svg">
<path d="M31.6676 26.6671C31.6676 31.3813 31.6676 33.7384 30.203 35.2029C28.7385 36.6674 26.3814 36.6674 21.6672 36.6674H18.3338C13.6196 36.6674 11.2625 36.6674 9.79801 35.2029C8.3335 33.7384 8.3335 31.3813 8.3335 26.6671V20.0002M8.3335 13.3333C8.3335 8.61913 8.3335 6.26203 9.79801 4.79752C11.2625 3.33301 13.6196 3.33301 18.3338 3.33301H21.6672C26.3814 3.33301 28.7385 3.33301 30.203 4.79752C31.6676 6.26203 31.6676 8.61913 31.6676 13.3333V20.0002" stroke="#F6F6F6" stroke-width="2.50008" stroke-linecap="round"/>
<path d="M8.33365 6.79395C6.70846 6.9538 5.61451 7.31508 4.79801 8.13159C3.3335 9.5961 3.3335 11.9532 3.3335 16.6674V23.3343C3.3335 28.0485 3.3335 30.4056 4.79801 31.8701C5.61451 32.6866 6.70846 33.0478 8.33365 33.2077" stroke="#F6F6F6" stroke-width="2.50008"/>
<path d="M31.6677 6.79395C33.2929 6.9538 34.3869 7.31508 35.2034 8.13159C36.6679 9.5961 36.6679 11.9532 36.6679 16.6674V23.3343C36.6679 28.0485 36.6679 30.4056 35.2034 31.8701C34.3869 32.6866 33.2929 33.0478 31.6677 33.2077" stroke="#F6F6F6" stroke-width="2.50008"/>
<path d="M15.0005 21.667H25.0008" stroke="#F6F6F6" stroke-width="2.50008" stroke-linecap="round"/>
<path d="M15.0005 15H25.0008" stroke="#F6F6F6" stroke-width="2.50008" stroke-linecap="round"/>
<path d="M15.0005 28.334H20.0006" stroke="#F6F6F6" stroke-width="2.50008" stroke-linecap="round"/>
</svg>
