<svg width="36" height="36" viewBox="0 0 36 36" fill="none" xmlns="http://www.w3.org/2000/svg">
<path fill-rule="evenodd" clip-rule="evenodd" d="M14.4473 3.96979C13.0216 5.05759 11.364 6.71148 9.03772 9.03772C6.71148 11.364 5.05759 13.0216 3.96979 14.4473C2.904 15.8442 2.50008 16.8706 2.50008 17.9172C2.50008 18.9638 2.904 19.9902 3.96979 21.3871C5.05759 22.8128 6.71148 24.4705 9.03772 26.7967C11.364 29.123 13.0216 30.7769 14.4473 31.8647C15.8442 32.9305 16.8706 33.3344 17.9172 33.3344C18.9638 33.3344 19.9902 32.9305 21.3871 31.8647C22.8128 30.7769 24.4705 29.123 26.7967 26.7967C29.123 24.4705 30.7769 22.8128 31.8647 21.3871C32.9305 19.9902 33.3344 18.9638 33.3344 17.9172C33.3344 16.8706 32.9305 15.8442 31.8647 14.4473C30.7769 13.0216 29.123 11.364 26.7967 9.03772C24.4705 6.71148 22.8128 5.05759 21.3871 3.96979C19.9902 2.904 18.9638 2.50008 17.9172 2.50008C16.8706 2.50008 15.8442 2.904 14.4473 3.96979ZM12.9308 1.98217C14.5501 0.746708 16.1042 0 17.9172 0C19.7303 0 21.2843 0.746708 22.9036 1.98217C24.4785 3.18376 26.2532 4.95852 28.4979 7.20325L28.6312 7.33655C30.8759 9.58125 32.6507 11.356 33.8523 12.9308C35.0877 14.5501 35.8344 16.1042 35.8344 17.9172C35.8344 19.7303 35.0877 21.2843 33.8523 22.9036C32.6507 24.4785 30.8759 26.2532 28.6312 28.4979L28.4979 28.6312C26.2532 30.8759 24.4785 32.6507 22.9036 33.8523C21.2843 35.0877 19.7303 35.8344 17.9172 35.8344C16.1042 35.8344 14.5501 35.0877 12.9308 33.8523C11.356 32.6507 9.58125 30.8759 7.33655 28.6312L7.20325 28.4979C4.95852 26.2532 3.18376 24.4785 1.98217 22.9036C0.746708 21.2843 0 19.7303 0 17.9172C0 16.1042 0.746708 14.5501 1.98217 12.9308C3.18376 11.356 4.95849 9.58127 7.20321 7.3366L7.3366 7.20321C9.58127 4.95849 11.356 3.18376 12.9308 1.98217Z" fill="#F6F6F6"/>
<path fill-rule="evenodd" clip-rule="evenodd" d="M19.2276 12.0621C19.6997 11.5585 20.4908 11.5329 20.9945 12.0051L25.4391 16.1719C25.6911 16.4082 25.8341 16.7383 25.8341 17.0839C25.8341 17.4294 25.6911 17.7595 25.4391 17.9958L20.9945 22.1626C20.4908 22.6348 19.6997 22.6093 19.2276 22.1056C18.7554 21.602 18.7809 20.8109 19.2846 20.3387L21.423 18.3339H15.6949C15.1386 18.3339 14.2879 18.5001 13.6164 18.9533C13.0118 19.3615 12.5004 20.0264 12.5004 21.2507C12.5004 21.941 11.9407 22.5007 11.2503 22.5007C10.56 22.5007 10.0003 21.941 10.0003 21.2507C10.0003 19.1415 10.9705 17.723 12.2177 16.8811C13.3981 16.0844 14.7697 15.8338 15.6949 15.8338H21.423L19.2846 13.829C18.7809 13.3568 18.7554 12.5658 19.2276 12.0621Z" fill="#F6F6F6"/>
</svg>
