<svg width="40" height="40" viewBox="0 0 40 40" fill="none" xmlns="http://www.w3.org/2000/svg">
<path d="M31.6676 33.3341V30.834M8.3335 33.3341V30.834" stroke="#F6F6F6" stroke-width="2.50008" stroke-linecap="round"/>
<path d="M3.3335 25.0011C3.3335 23.4479 3.3335 22.6714 3.58724 22.0588C3.92556 21.242 4.5745 20.593 5.39128 20.2547C6.00387 20.001 6.78047 20.001 8.33365 20.001H31.6677C33.2209 20.001 33.9975 20.001 34.6101 20.2547C35.4269 20.593 36.0758 21.242 36.4141 22.0588C36.6679 22.6714 36.6679 23.4479 36.6679 25.0011C36.6679 26.5543 36.6679 27.3309 36.4141 27.9435C36.0758 28.7603 35.4269 29.4092 34.6101 29.7475C33.9975 30.0013 33.2209 30.0013 31.6677 30.0013H8.33365C6.78046 30.0013 6.00387 30.0013 5.39128 29.7475C4.5745 29.4092 3.92556 28.7603 3.58724 27.9435C3.3335 27.3309 3.3335 26.5543 3.3335 25.0011Z" stroke="#F6F6F6" stroke-width="2.50008"/>
<path d="M35.0012 20.0007C35.0012 13.7152 35.0012 10.5724 33.0485 8.61967C31.0958 6.66699 27.953 6.66699 21.6674 6.66699H18.334C12.0484 6.66699 8.90561 6.66699 6.95293 8.61967C5.00024 10.5724 5.00024 13.7152 5.00024 20.0007" stroke="#F6F6F6" stroke-width="2.50008"/>
<path d="M30.8343 20.0009V17.5009C30.8343 14.3581 30.8343 12.7867 29.858 11.8103C28.8817 10.834 27.3103 10.834 24.1675 10.834H15.8339C12.6911 10.834 11.1197 10.834 10.1433 11.8103C9.16699 12.7867 9.16699 14.3581 9.16699 17.5009V20.0009" stroke="#F6F6F6" stroke-width="2.50008"/>
<path d="M20.0007 11.667V20.0006" stroke="#F6F6F6" stroke-width="2.50008"/>
</svg>
