<svg width="41" height="41" viewBox="0 0 41 41" fill="none" xmlns="http://www.w3.org/2000/svg">
<path d="M18.2883 15.7663C19.1414 14.2359 19.5679 13.4707 20.2057 13.4707C20.8434 13.4707 21.2699 14.2359 22.1231 15.7663L22.3438 16.1622C22.5862 16.5971 22.7074 16.8146 22.8964 16.9581C23.0854 17.1015 23.3208 17.1548 23.7915 17.2613L24.2201 17.3583C25.8768 17.7331 26.7051 17.9205 26.9022 18.5542C27.0992 19.188 26.5345 19.8483 25.4052 21.169L25.113 21.5107C24.792 21.8859 24.6316 22.0736 24.5594 22.3057C24.4872 22.5379 24.5114 22.7882 24.56 23.289L24.6041 23.7448C24.7749 25.5069 24.8603 26.3879 24.3443 26.7796C23.8284 27.1713 23.0528 26.8142 21.5017 26.1L21.1004 25.9152C20.6597 25.7123 20.4393 25.6108 20.2057 25.6108C19.972 25.6108 19.7516 25.7123 19.3109 25.9152L18.9096 26.1C17.3585 26.8142 16.5829 27.1713 16.067 26.7796C15.551 26.3879 15.6364 25.5069 15.8072 23.7448L15.8513 23.289C15.8999 22.7882 15.9241 22.5379 15.8519 22.3057C15.7797 22.0736 15.6193 21.8859 15.2983 21.5107L15.0061 21.169C13.8768 19.8483 13.3121 19.188 13.5091 18.5542C13.7062 17.9205 14.5345 17.7331 16.1912 17.3583L16.6198 17.2613C17.0905 17.1548 17.3259 17.1015 17.5149 16.9581C17.7039 16.8146 17.8251 16.5971 18.0675 16.1622L18.2883 15.7663Z" stroke="#F6F6F6" stroke-width="2.5257"/>
<path d="M11.7867 5.61981C14.2633 4.18715 17.1387 3.36719 20.2057 3.36719C29.505 3.36719 37.0436 10.9058 37.0436 20.2052C37.0436 29.5045 29.505 37.0432 20.2057 37.0432C10.9063 37.0432 3.36768 29.5045 3.36768 20.2052C3.36768 17.1382 4.18764 14.2628 5.6203 11.7862" stroke="#F6F6F6" stroke-width="2.5257" stroke-linecap="round"/>
</svg>
