<svg width="34" height="35" viewBox="0 0 34 35" fill="none" xmlns="http://www.w3.org/2000/svg">
<path d="M10.0003 1.66672C10.0003 0.746215 9.25409 0 8.33359 0C7.4131 0 6.66687 0.746215 6.66687 1.66672V3.33344C6.66687 3.34487 6.66758 3.35486 6.66823 3.36416C6.67329 3.43666 6.67548 3.46783 6.32168 3.8216L6.28815 3.85509C5.8435 4.29867 5.00016 5.14001 5.00016 6.66688V8.33359C5.00016 9.25409 5.74638 10.0003 6.66687 10.0003C7.58737 10.0003 8.33359 9.25409 8.33359 8.33359V6.66688C8.33359 6.65544 8.33289 6.64546 8.33224 6.63616C8.32718 6.56365 8.32499 6.53249 8.67879 6.17871L8.71232 6.14523C9.15697 5.70164 10.0003 4.8603 10.0003 3.33344V1.66672ZM28.3342 1.66672C28.3342 0.746215 27.588 0 26.6675 0C25.747 0 25.0008 0.746215 25.0008 1.66672V3.33344C25.0008 3.34487 25.0014 3.35486 25.0021 3.36416C25.0071 3.43666 25.0094 3.46783 24.6556 3.8216L24.6221 3.85509C24.1774 4.29867 23.3341 5.14001 23.3341 6.66688V8.33359C23.3341 9.25409 24.0803 10.0003 25.0008 10.0003C25.9213 10.0003 26.6675 9.25409 26.6675 8.33359V6.66688C26.6675 6.65544 26.6668 6.64546 26.6662 6.63616C26.6612 6.56365 26.6588 6.53249 27.0127 6.17871L27.0462 6.14523C27.4909 5.70164 28.3342 4.8603 28.3342 3.33344V1.66672ZM17.5005 0C18.4211 0 19.1673 0.746215 19.1673 1.66672V3.33344C19.1673 4.8603 18.3239 5.70164 17.8792 6.14523L17.8457 6.17871C17.4919 6.53249 17.4942 6.56365 17.4992 6.63616C17.4999 6.64546 17.5005 6.65544 17.5005 6.66688V8.33359C17.5005 9.25409 16.7544 10.0003 15.8338 10.0003C14.9133 10.0003 14.1671 9.25409 14.1671 8.33359V6.66688C14.1671 5.14001 15.0105 4.29867 15.4551 3.85509L15.4887 3.8216C15.8425 3.46783 15.8402 3.43666 15.8352 3.36416C15.8345 3.35486 15.8338 3.34487 15.8338 3.33344V1.66672C15.8338 0.746215 16.58 0 17.5005 0ZM3.33344 15.8338H30.0009C30.0009 23.1979 24.0312 29.1676 16.6672 29.1676C9.30316 29.1676 3.33344 23.1979 3.33344 15.8338ZM1.66672 12.5004C0.746223 12.5004 0 13.2466 0 14.1671V15.8338C0 22.6684 4.11378 28.5422 10.0003 31.1141V32.501C10.0003 33.4215 10.7465 34.1677 11.667 34.1677H21.6673C22.5879 34.1677 23.3341 33.4215 23.3341 32.501V31.1141C29.2206 28.5422 33.3344 22.6684 33.3344 15.8338V14.1671C33.3344 13.2466 32.5882 12.5004 31.6677 12.5004H1.66672Z" fill="#F6F6F6"/>
</svg>
