<svg width="34" height="32" viewBox="0 0 34 32" fill="none" xmlns="http://www.w3.org/2000/svg">
<path d="M18.3339 10.0003V23.3341C18.3339 26.0956 16.0953 28.3342 13.3337 28.3342H9.71579C9.02938 30.2763 7.17726 31.6677 5.00016 31.6677C2.23865 31.6677 0 29.4291 0 26.6675C0 23.9059 2.23865 21.6673 5.00016 21.6673C7.17726 21.6673 9.02938 23.0587 9.71579 25.0008H13.3337C14.2543 25.0008 15.0005 24.2546 15.0005 23.3341V10.0003C15.0005 7.23881 17.239 5.00016 20.0006 5.00016H25.0008V0L33.3344 6.66688L25.0008 13.3338V8.33359H20.0006C19.0801 8.33359 18.3339 9.07982 18.3339 10.0003ZM5.00016 28.3342C5.92065 28.3342 6.66687 27.588 6.66687 26.6675C6.66687 25.747 5.92065 25.0008 5.00016 25.0008C4.07966 25.0008 3.33344 25.747 3.33344 26.6675C3.33344 27.588 4.07966 28.3342 5.00016 28.3342Z" fill="#F6F6F6"/>
</svg>
