<svg width="40" height="40" viewBox="0 0 40 40" fill="none" xmlns="http://www.w3.org/2000/svg">
<path d="M23.3341 6.66645C23.3341 8.50745 21.8417 9.99988 20.0007 9.99988C18.1597 9.99988 16.6672 8.50745 16.6672 6.66645C16.6672 4.82544 18.1597 3.33301 20.0007 3.33301C21.8417 3.33301 23.3341 4.82544 23.3341 6.66645Z" stroke="#F6F6F6" stroke-width="2.50008"/>
<path d="M10.0799 18.0825L10.4752 16.8966V16.8966L10.0799 18.0825ZM13.7055 19.291L13.3102 20.4769L13.3102 20.4769L13.7055 19.291ZM15.0284 22.0943L13.8617 21.6455V21.6455L15.0284 22.0943ZM12.9504 27.4972L14.1171 27.9459H14.1171L12.9504 27.4972ZM29.9212 18.0825L29.5259 16.8966V16.8966L29.9212 18.0825ZM26.2956 19.291L26.6909 20.4769V20.4769L26.2956 19.291ZM24.9726 22.0943L26.1394 21.6455V21.6455L24.9726 22.0943ZM27.0507 27.4972L25.884 27.9459V27.9459L27.0507 27.4972ZM17.3741 29.5969L18.4594 30.2171V30.2171L17.3741 29.5969ZM20.0005 25.0006L21.0859 24.3804C20.8633 23.9909 20.4491 23.7505 20.0005 23.7505C19.5519 23.7505 19.1377 23.9909 18.9152 24.3804L20.0005 25.0006ZM28.5784 13.1622L28.3165 11.9399V11.9399L28.5784 13.1622ZM25.4157 13.8399L25.6776 15.0622V15.0622L25.4157 13.8399ZM14.5854 13.8399L14.8473 12.6176V12.6176L14.5854 13.8399ZM11.4227 13.1622L11.1608 14.3845L11.4227 13.1622ZM22.627 29.5969L21.5417 30.2171H21.5417L22.627 29.5969ZM25.0647 13.9144L24.8115 12.6903L24.8115 12.6903L25.0647 13.9144ZM14.9364 13.9144L14.6832 15.1386L14.6832 15.1386L14.9364 13.9144ZM25.4736 19.6118L26.1302 20.6755V20.6755L25.4736 19.6118ZM24.6977 21.2559L25.9362 21.0865V21.0865L24.6977 21.2559ZM14.5274 19.6118L13.8708 20.6755H13.8708L14.5274 19.6118ZM15.3033 21.2559L16.5418 21.4252L16.5418 21.4252L15.3033 21.2559ZM17.2427 15.5375C17.9293 15.61 18.5447 15.1123 18.6172 14.4257C18.6897 13.7391 18.1919 13.1238 17.5054 13.0513L17.3741 14.2944L17.2427 15.5375ZM22.4957 13.0513C21.8091 13.1238 21.3113 13.7391 21.3839 14.4257C21.4564 15.1123 22.0718 15.61 22.7583 15.5375L22.627 14.2944L22.4957 13.0513ZM10.0799 18.0825L9.68458 19.2684L13.3102 20.4769L13.7055 19.291L14.1008 18.1051L10.4752 16.8966L10.0799 18.0825ZM15.0284 22.0943L13.8617 21.6455L11.7836 27.0485L12.9504 27.4972L14.1171 27.9459L16.1951 22.543L15.0284 22.0943ZM29.9212 18.0825L29.5259 16.8966L25.9003 18.1051L26.2956 19.291L26.6909 20.4769L30.3165 19.2684L29.9212 18.0825ZM24.9726 22.0943L23.8059 22.543L25.884 27.9459L27.0507 27.4972L28.2174 27.0485L26.1394 21.6455L24.9726 22.0943ZM17.3741 29.5969L18.4594 30.2171L21.0859 25.6208L20.0005 25.0006L18.9152 24.3804L16.2887 28.9767L17.3741 29.5969ZM28.5784 13.1622L28.3165 11.9399L25.1537 12.6176L25.4157 13.8399L25.6776 15.0622L28.8403 14.3845L28.5784 13.1622ZM14.5854 13.8399L14.8473 12.6176L11.6846 11.9399L11.4227 13.1622L11.1608 14.3845L14.3235 15.0622L14.5854 13.8399ZM20.0005 25.0006L18.9152 25.6208L21.5417 30.2171L22.627 29.5969L23.7123 28.9767L21.0859 24.3804L20.0005 25.0006ZM25.4157 13.8399L25.1537 12.6176C24.9762 12.6556 24.8933 12.6734 24.8115 12.6903L25.0647 13.9144L25.3179 15.1386C25.4104 15.1194 25.5034 15.0995 25.6776 15.0622L25.4157 13.8399ZM14.5854 13.8399L14.3235 15.0622C14.4977 15.0995 14.5906 15.1194 14.6832 15.1386L14.9364 13.9144L15.1896 12.6903C15.1078 12.6734 15.0248 12.6556 14.8473 12.6176L14.5854 13.8399ZM15.2421 30.8341V32.0841C16.5719 32.0841 17.7997 31.3716 18.4594 30.2171L17.3741 29.5969L16.2887 28.9767C16.0741 29.3523 15.6747 29.5841 15.2421 29.5841V30.8341ZM27.0507 27.4972L25.884 27.9459C26.1876 28.7355 25.6048 29.5841 24.7589 29.5841V30.8341V32.0841C27.3594 32.0841 29.1509 29.4756 28.2174 27.0485L27.0507 27.4972ZM26.2956 19.291L25.9003 18.1051C25.5304 18.2284 25.1367 18.3508 24.817 18.5481L25.4736 19.6118L26.1302 20.6755C26.1155 20.6846 26.1279 20.6737 26.2243 20.6372C26.3257 20.5989 26.4624 20.5531 26.6909 20.4769L26.2956 19.291ZM24.9726 22.0943L26.1394 21.6455C26.0529 21.4207 26.0014 21.2861 25.9665 21.1835C25.9334 21.0858 25.9339 21.0693 25.9362 21.0865L24.6977 21.2559L23.4592 21.4252C23.5101 21.7974 23.666 22.1791 23.8059 22.543L24.9726 22.0943ZM25.4736 19.6118L24.817 18.5481C23.8352 19.1541 23.3029 20.282 23.4592 21.4252L24.6977 21.2559L25.9362 21.0865C25.9139 20.9232 25.9899 20.7621 26.1302 20.6755L25.4736 19.6118ZM31.6676 15.6595H30.4175C30.4175 16.2208 30.0584 16.7191 29.5259 16.8966L29.9212 18.0825L30.3165 19.2684C31.8698 18.7506 32.9176 17.2969 32.9176 15.6595H31.6676ZM12.9504 27.4972L11.7836 27.0485C10.8501 29.4756 12.6417 32.0841 15.2421 32.0841V30.8341V29.5841C14.3962 29.5841 13.8134 28.7355 14.1171 27.9459L12.9504 27.4972ZM13.7055 19.291L13.3102 20.4769C13.5387 20.5531 13.6753 20.5989 13.7767 20.6372C13.8732 20.6737 13.8856 20.6846 13.8708 20.6755L14.5274 19.6118L15.184 18.5481C14.8644 18.3508 14.4707 18.2284 14.1008 18.1051L13.7055 19.291ZM15.0284 22.0943L16.1951 22.543C16.3351 22.1791 16.4909 21.7974 16.5418 21.4252L15.3033 21.2559L14.0648 21.0865C14.0672 21.0693 14.0677 21.0858 14.0345 21.1835C13.9997 21.2861 13.9481 21.4207 13.8617 21.6455L15.0284 22.0943ZM14.5274 19.6118L13.8708 20.6755C14.0111 20.7621 14.0871 20.9232 14.0648 21.0865L15.3033 21.2559L16.5418 21.4252C16.6982 20.282 16.1659 19.1541 15.184 18.5481L14.5274 19.6118ZM8.3335 15.6595H7.08346C7.08346 17.2969 8.13121 18.7506 9.68458 19.2684L10.0799 18.0825L10.4752 16.8966C9.9427 16.7191 9.58354 16.2208 9.58354 15.6595H8.3335ZM8.3335 15.6595H9.58354C9.58354 14.8293 10.349 14.2105 11.1608 14.3845L11.4227 13.1622L11.6846 11.9399C9.31652 11.4324 7.08346 13.2377 7.08346 15.6595H8.3335ZM22.627 29.5969L21.5417 30.2171C22.2014 31.3716 23.4292 32.0841 24.7589 32.0841V30.8341V29.5841C24.3263 29.5841 23.9269 29.3523 23.7123 28.9767L22.627 29.5969ZM31.6676 15.6595H32.9176C32.9176 13.2377 30.6845 11.4324 28.3165 11.9399L28.5784 13.1622L28.8403 14.3845C29.6521 14.2105 30.4175 14.8293 30.4175 15.6595H31.6676ZM17.3741 14.2944L17.5054 13.0513C16.7295 12.9693 15.9566 12.849 15.1896 12.6903L14.9364 13.9144L14.6832 15.1386C15.5309 15.3139 16.3851 15.4469 17.2427 15.5375L17.3741 14.2944ZM25.0647 13.9144L24.8115 12.6903C24.0445 12.849 23.2716 12.9693 22.4957 13.0513L22.627 14.2944L22.7583 15.5375C23.6159 15.4469 24.4701 15.3139 25.3179 15.1386L25.0647 13.9144Z" fill="#F6F6F6"/>
<path d="M32.4239 25.001C35.0631 26.3279 36.6679 28.0802 36.6679 30.0011C36.6679 31.2484 35.9913 32.4246 34.7942 33.4595M7.57748 25.001C4.93829 26.3279 3.3335 28.0802 3.3335 30.0011C3.3335 34.1434 10.7956 37.5014 20.0007 37.5014C23.0365 37.5014 25.8828 37.1361 28.3343 36.498" stroke="#F6F6F6" stroke-width="2.50008" stroke-linecap="round"/>
</svg>
